# xmcd
#
# Track frame offsets:
#	150
#	15958
#	33239
#	47274
#	64271
#	78761
#	92801
#	106884
#	123907
#	138581
#	152896
#	168980
#	182549
#	200171
#	213228
#	227549
#	241620
#	255468
#	269595
#	283106
#	297507
#
# Disc length: 4152 seconds
#
# Revision: 1
# Processed by: cddbd v1.5.2PL0 Copyright (c) Steve Scherf et al.
# Submitted via: dBpowerAMP V4.0
#
DISCID=1c103615
DTITLE=Various Artist - Hott Country # 270 Canada
DYEAR=2018
DGENRE=Country
TTITLE0=Eric Church - Desperate Man
TTITLE1=Blake Shelton - Turnin' Me On
TTITLE2=Dallas Smith - Make 'Em Like You
TTITLE3=Kenny Chesney ft. Mindy Smith - Better Boat
TTITLE4=David Lee Murphy - I Won't Be Sorry
TTITLE5=Florida Georgia Line - Simple
TTITLE6=Tebey - Who's Gonna Love You
TTITLE7=Randy Houser - What Whiskey Does
TTITLE8=Riley Green - There Was This Girl
TTITLE9=Petric - Can't Say No
TTITLE10=Dan and Shay - Speechless
TTITLE11=Uncle Kracker - Floatin'
TTITLE12=Morgan Wallen - Whiskey Glasses
TTITLE13=Jon Pardi - Night Shift
TTITLE14=Jade Eagleson - Got Your Name On It
TTITLE15=Ashley McBryde - Radioland
TTITLE16=Lovelocks, The - 20 Dollars In My Pocket
TTITLE17=Eli Young Band - Love Ain't
TTITLE18=Shane Owens - Lie
TTITLE19=Bucky Covington - I Probably Won't
TTITLE20=Trevor Panczak - Cheap Shades
EXTD=
EXTT0=
EXTT1=
EXTT2=
EXTT3=
EXTT4=
EXTT5=
EXTT6=
EXTT7=
EXTT8=
EXTT9=
EXTT10=
EXTT11=
EXTT12=
EXTT13=
EXTT14=
EXTT15=
EXTT16=
EXTT17=
EXTT18=
EXTT19=
EXTT20=
PLAYORDER=
